<svg xmlns="http://www.w3.org/2000/svg" version="1.1" xmlns:xlink="http://www.w3.org/1999/xlink" xmlns:svgjs="http://svgjs.com/svgjs" width="1440" height="560" preserveAspectRatio="none" viewBox="0 0 1440 560"><g mask="url(&quot;#SvgjsMask12700&quot;)" fill="none"><rect width="1440" height="560" x="0" y="0" fill="url(#SvgjsLinearGradient12701)"></rect><path d="M23.92 379.85L88.87 417.35L88.87 492.35L23.92 529.85L-41.03 492.35L-41.03 417.35zM88.87 492.35L153.83 529.85L153.83 604.85L88.87 642.35L23.92 604.85L23.92 529.85zM218.78 42.35L283.74 79.85L283.74 154.85L218.78 192.35L153.83 154.85L153.83 79.85zM153.83 154.85L218.78 192.35L218.78 267.35L153.83 304.85L88.87 267.35L88.87 192.35zM153.83 379.85L218.78 417.35L218.78 492.35L153.83 529.85L88.87 492.35L88.87 417.35zM218.78 492.35L283.74 529.85L283.74 604.85L218.78 642.35L153.83 604.85L153.83 529.85zM283.74 -70.15L348.69 -32.65L348.69 42.35L283.74 79.85L218.78 42.35L218.78 -32.65zM348.69 42.35L413.64 79.85L413.64 154.85L348.69 192.35L283.74 154.85L283.74 79.85zM413.64 -70.15L478.6 -32.65L478.6 42.35L413.64 79.85L348.69 42.35L348.69 -32.65zM478.6 267.35L543.55 304.85L543.55 379.85L478.6 417.35L413.64 379.85L413.64 304.85zM543.55 154.85L608.5 192.35L608.5 267.35L543.55 304.85L478.6 267.35L478.6 192.35zM608.5 492.35L673.46 529.85L673.46 604.85L608.5 642.35L543.55 604.85L543.55 529.85zM738.41 42.35L803.37 79.85L803.37 154.85L738.41 192.35L673.46 154.85L673.46 79.85zM673.46 154.85L738.41 192.35L738.41 267.35L673.46 304.85L608.5 267.35L608.5 192.35zM738.41 267.35L803.37 304.85L803.37 379.85L738.41 417.35L673.46 379.85L673.46 304.85zM868.32 492.35L933.27 529.85L933.27 604.85L868.32 642.35L803.36 604.85L803.36 529.85zM998.23 42.35L1063.18 79.85L1063.18 154.85L998.23 192.35L933.27 154.85L933.27 79.85zM998.23 267.35L1063.18 304.85L1063.18 379.85L998.23 417.35L933.27 379.85L933.27 304.85zM933.27 379.85L998.23 417.35L998.23 492.35L933.27 529.85L868.32 492.35L868.32 417.35zM1063.18 -70.15L1128.13 -32.65L1128.13 42.35L1063.18 79.85L998.23 42.35L998.23 -32.65zM1128.13 42.35L1193.09 79.85L1193.09 154.85L1128.13 192.35L1063.18 154.85L1063.18 79.85zM1063.18 154.85L1128.13 192.35L1128.13 267.35L1063.18 304.85L998.23 267.35L998.23 192.35zM1193.09 154.85L1258.04 192.35L1258.04 267.35L1193.09 304.85L1128.13 267.35L1128.13 192.35zM1387.95 42.35L1452.9 79.85L1452.9 154.85L1387.95 192.35L1323 154.85L1323 79.85zM1387.95 267.35L1452.9 304.85L1452.9 379.85L1387.95 417.35L1323 379.85L1323 304.85zM1517.86 42.35L1582.81 79.85L1582.81 154.85L1517.86 192.35L1452.9 154.85L1452.9 79.85zM1452.9 154.85L1517.86 192.35L1517.86 267.35L1452.9 304.85L1387.95 267.35L1387.95 192.35zM1517.86 267.35L1582.81 304.85L1582.81 379.85L1517.86 417.35L1452.9 379.85L1452.9 304.85zM1452.9 379.85L1517.86 417.35L1517.86 492.35L1452.9 529.85L1387.95 492.35L1387.95 417.35z" stroke="url(#SvgjsLinearGradient12702)" stroke-width="2"></path><path d="M16.42 379.85 a7.5 7.5 0 1 0 15 0 a7.5 7.5 0 1 0 -15 0zM81.37 417.35 a7.5 7.5 0 1 0 15 0 a7.5 7.5 0 1 0 -15 0zM81.37 492.35 a7.5 7.5 0 1 0 15 0 a7.5 7.5 0 1 0 -15 0zM16.42 529.85 a7.5 7.5 0 1 0 15 0 a7.5 7.5 0 1 0 -15 0zM-48.53 492.35 a7.5 7.5 0 1 0 15 0 a7.5 7.5 0 1 0 -15 0zM-48.53 417.35 a7.5 7.5 0 1 0 15 0 a7.5 7.5 0 1 0 -15 0zM146.33 529.85 a7.5 7.5 0 1 0 15 0 a7.5 7.5 0 1 0 -15 0zM146.33 604.85 a7.5 7.5 0 1 0 15 0 a7.5 7.5 0 1 0 -15 0zM81.37 642.35 a7.5 7.5 0 1 0 15 0 a7.5 7.5 0 1 0 -15 0zM16.42 604.85 a7.5 7.5 0 1 0 15 0 a7.5 7.5 0 1 0 -15 0zM211.28 42.35 a7.5 7.5 0 1 0 15 0 a7.5 7.5 0 1 0 -15 0zM276.24 79.85 a7.5 7.5 0 1 0 15 0 a7.5 7.5 0 1 0 -15 0zM276.24 154.85 a7.5 7.5 0 1 0 15 0 a7.5 7.5 0 1 0 -15 0zM211.28 192.35 a7.5 7.5 0 1 0 15 0 a7.5 7.5 0 1 0 -15 0zM146.33 154.85 a7.5 7.5 0 1 0 15 0 a7.5 7.5 0 1 0 -15 0zM146.33 79.85 a7.5 7.5 0 1 0 15 0 a7.5 7.5 0 1 0 -15 0zM211.28 267.35 a7.5 7.5 0 1 0 15 0 a7.5 7.5 0 1 0 -15 0zM146.33 304.85 a7.5 7.5 0 1 0 15 0 a7.5 7.5 0 1 0 -15 0zM81.37 267.35 a7.5 7.5 0 1 0 15 0 a7.5 7.5 0 1 0 -15 0zM81.37 192.35 a7.5 7.5 0 1 0 15 0 a7.5 7.5 0 1 0 -15 0zM146.33 379.85 a7.5 7.5 0 1 0 15 0 a7.5 7.5 0 1 0 -15 0zM211.28 417.35 a7.5 7.5 0 1 0 15 0 a7.5 7.5 0 1 0 -15 0zM211.28 492.35 a7.5 7.5 0 1 0 15 0 a7.5 7.5 0 1 0 -15 0zM276.24 529.85 a7.5 7.5 0 1 0 15 0 a7.5 7.5 0 1 0 -15 0zM276.24 604.85 a7.5 7.5 0 1 0 15 0 a7.5 7.5 0 1 0 -15 0zM211.28 642.35 a7.5 7.5 0 1 0 15 0 a7.5 7.5 0 1 0 -15 0zM276.24 -70.15 a7.5 7.5 0 1 0 15 0 a7.5 7.5 0 1 0 -15 0zM341.19 -32.65 a7.5 7.5 0 1 0 15 0 a7.5 7.5 0 1 0 -15 0zM341.19 42.35 a7.5 7.5 0 1 0 15 0 a7.5 7.5 0 1 0 -15 0zM211.28 -32.65 a7.5 7.5 0 1 0 15 0 a7.5 7.5 0 1 0 -15 0zM406.14 79.85 a7.5 7.5 0 1 0 15 0 a7.5 7.5 0 1 0 -15 0zM406.14 154.85 a7.5 7.5 0 1 0 15 0 a7.5 7.5 0 1 0 -15 0zM341.19 192.35 a7.5 7.5 0 1 0 15 0 a7.5 7.5 0 1 0 -15 0zM406.14 -70.15 a7.5 7.5 0 1 0 15 0 a7.5 7.5 0 1 0 -15 0zM471.1 -32.65 a7.5 7.5 0 1 0 15 0 a7.5 7.5 0 1 0 -15 0zM471.1 42.35 a7.5 7.5 0 1 0 15 0 a7.5 7.5 0 1 0 -15 0zM471.1 267.35 a7.5 7.5 0 1 0 15 0 a7.5 7.5 0 1 0 -15 0zM536.05 304.85 a7.5 7.5 0 1 0 15 0 a7.5 7.5 0 1 0 -15 0zM536.05 379.85 a7.5 7.5 0 1 0 15 0 a7.5 7.5 0 1 0 -15 0zM471.1 417.35 a7.5 7.5 0 1 0 15 0 a7.5 7.5 0 1 0 -15 0zM406.14 379.85 a7.5 7.5 0 1 0 15 0 a7.5 7.5 0 1 0 -15 0zM406.14 304.85 a7.5 7.5 0 1 0 15 0 a7.5 7.5 0 1 0 -15 0zM536.05 154.85 a7.5 7.5 0 1 0 15 0 a7.5 7.5 0 1 0 -15 0zM601 192.35 a7.5 7.5 0 1 0 15 0 a7.5 7.5 0 1 0 -15 0zM601 267.35 a7.5 7.5 0 1 0 15 0 a7.5 7.5 0 1 0 -15 0zM471.1 192.35 a7.5 7.5 0 1 0 15 0 a7.5 7.5 0 1 0 -15 0zM601 492.35 a7.5 7.5 0 1 0 15 0 a7.5 7.5 0 1 0 -15 0zM665.96 529.85 a7.5 7.5 0 1 0 15 0 a7.5 7.5 0 1 0 -15 0zM665.96 604.85 a7.5 7.5 0 1 0 15 0 a7.5 7.5 0 1 0 -15 0zM601 642.35 a7.5 7.5 0 1 0 15 0 a7.5 7.5 0 1 0 -15 0zM536.05 604.85 a7.5 7.5 0 1 0 15 0 a7.5 7.5 0 1 0 -15 0zM536.05 529.85 a7.5 7.5 0 1 0 15 0 a7.5 7.5 0 1 0 -15 0zM730.91 42.35 a7.5 7.5 0 1 0 15 0 a7.5 7.5 0 1 0 -15 0zM795.87 79.85 a7.5 7.5 0 1 0 15 0 a7.5 7.5 0 1 0 -15 0zM795.87 154.85 a7.5 7.5 0 1 0 15 0 a7.5 7.5 0 1 0 -15 0zM730.91 192.35 a7.5 7.5 0 1 0 15 0 a7.5 7.5 0 1 0 -15 0zM665.96 154.85 a7.5 7.5 0 1 0 15 0 a7.5 7.5 0 1 0 -15 0zM665.96 79.85 a7.5 7.5 0 1 0 15 0 a7.5 7.5 0 1 0 -15 0zM730.91 267.35 a7.5 7.5 0 1 0 15 0 a7.5 7.5 0 1 0 -15 0zM665.96 304.85 a7.5 7.5 0 1 0 15 0 a7.5 7.5 0 1 0 -15 0zM795.87 304.85 a7.5 7.5 0 1 0 15 0 a7.5 7.5 0 1 0 -15 0zM795.87 379.85 a7.5 7.5 0 1 0 15 0 a7.5 7.5 0 1 0 -15 0zM730.91 417.35 a7.5 7.5 0 1 0 15 0 a7.5 7.5 0 1 0 -15 0zM665.96 379.85 a7.5 7.5 0 1 0 15 0 a7.5 7.5 0 1 0 -15 0zM860.82 492.35 a7.5 7.5 0 1 0 15 0 a7.5 7.5 0 1 0 -15 0zM925.77 529.85 a7.5 7.5 0 1 0 15 0 a7.5 7.5 0 1 0 -15 0zM925.77 604.85 a7.5 7.5 0 1 0 15 0 a7.5 7.5 0 1 0 -15 0zM860.82 642.35 a7.5 7.5 0 1 0 15 0 a7.5 7.5 0 1 0 -15 0zM795.86 604.85 a7.5 7.5 0 1 0 15 0 a7.5 7.5 0 1 0 -15 0zM795.86 529.85 a7.5 7.5 0 1 0 15 0 a7.5 7.5 0 1 0 -15 0zM990.73 42.35 a7.5 7.5 0 1 0 15 0 a7.5 7.5 0 1 0 -15 0zM1055.68 79.85 a7.5 7.5 0 1 0 15 0 a7.5 7.5 0 1 0 -15 0zM1055.68 154.85 a7.5 7.5 0 1 0 15 0 a7.5 7.5 0 1 0 -15 0zM990.73 192.35 a7.5 7.5 0 1 0 15 0 a7.5 7.5 0 1 0 -15 0zM925.77 154.85 a7.5 7.5 0 1 0 15 0 a7.5 7.5 0 1 0 -15 0zM925.77 79.85 a7.5 7.5 0 1 0 15 0 a7.5 7.5 0 1 0 -15 0zM990.73 267.35 a7.5 7.5 0 1 0 15 0 a7.5 7.5 0 1 0 -15 0zM1055.68 304.85 a7.5 7.5 0 1 0 15 0 a7.5 7.5 0 1 0 -15 0zM1055.68 379.85 a7.5 7.5 0 1 0 15 0 a7.5 7.5 0 1 0 -15 0zM990.73 417.35 a7.5 7.5 0 1 0 15 0 a7.5 7.5 0 1 0 -15 0zM925.77 379.85 a7.5 7.5 0 1 0 15 0 a7.5 7.5 0 1 0 -15 0zM925.77 304.85 a7.5 7.5 0 1 0 15 0 a7.5 7.5 0 1 0 -15 0zM990.73 492.35 a7.5 7.5 0 1 0 15 0 a7.5 7.5 0 1 0 -15 0zM860.82 417.35 a7.5 7.5 0 1 0 15 0 a7.5 7.5 0 1 0 -15 0zM1055.68 -70.15 a7.5 7.5 0 1 0 15 0 a7.5 7.5 0 1 0 -15 0zM1120.63 -32.65 a7.5 7.5 0 1 0 15 0 a7.5 7.5 0 1 0 -15 0zM1120.63 42.35 a7.5 7.5 0 1 0 15 0 a7.5 7.5 0 1 0 -15 0zM990.73 -32.65 a7.5 7.5 0 1 0 15 0 a7.5 7.5 0 1 0 -15 0zM1185.59 79.85 a7.5 7.5 0 1 0 15 0 a7.5 7.5 0 1 0 -15 0zM1185.59 154.85 a7.5 7.5 0 1 0 15 0 a7.5 7.5 0 1 0 -15 0zM1120.63 192.35 a7.5 7.5 0 1 0 15 0 a7.5 7.5 0 1 0 -15 0zM1120.63 267.35 a7.5 7.5 0 1 0 15 0 a7.5 7.5 0 1 0 -15 0zM1250.54 192.35 a7.5 7.5 0 1 0 15 0 a7.5 7.5 0 1 0 -15 0zM1250.54 267.35 a7.5 7.5 0 1 0 15 0 a7.5 7.5 0 1 0 -15 0zM1185.59 304.85 a7.5 7.5 0 1 0 15 0 a7.5 7.5 0 1 0 -15 0zM1380.45 42.35 a7.5 7.5 0 1 0 15 0 a7.5 7.5 0 1 0 -15 0zM1445.4 79.85 a7.5 7.5 0 1 0 15 0 a7.5 7.5 0 1 0 -15 0zM1445.4 154.85 a7.5 7.5 0 1 0 15 0 a7.5 7.5 0 1 0 -15 0zM1380.45 192.35 a7.5 7.5 0 1 0 15 0 a7.5 7.5 0 1 0 -15 0zM1315.5 154.85 a7.5 7.5 0 1 0 15 0 a7.5 7.5 0 1 0 -15 0zM1315.5 79.85 a7.5 7.5 0 1 0 15 0 a7.5 7.5 0 1 0 -15 0zM1380.45 267.35 a7.5 7.5 0 1 0 15 0 a7.5 7.5 0 1 0 -15 0zM1445.4 304.85 a7.5 7.5 0 1 0 15 0 a7.5 7.5 0 1 0 -15 0zM1445.4 379.85 a7.5 7.5 0 1 0 15 0 a7.5 7.5 0 1 0 -15 0zM1380.45 417.35 a7.5 7.5 0 1 0 15 0 a7.5 7.5 0 1 0 -15 0zM1315.5 379.85 a7.5 7.5 0 1 0 15 0 a7.5 7.5 0 1 0 -15 0zM1315.5 304.85 a7.5 7.5 0 1 0 15 0 a7.5 7.5 0 1 0 -15 0zM1510.36 42.35 a7.5 7.5 0 1 0 15 0 a7.5 7.5 0 1 0 -15 0zM1575.31 79.85 a7.5 7.5 0 1 0 15 0 a7.5 7.5 0 1 0 -15 0zM1575.31 154.85 a7.5 7.5 0 1 0 15 0 a7.5 7.5 0 1 0 -15 0zM1510.36 192.35 a7.5 7.5 0 1 0 15 0 a7.5 7.5 0 1 0 -15 0zM1510.36 267.35 a7.5 7.5 0 1 0 15 0 a7.5 7.5 0 1 0 -15 0zM1575.31 304.85 a7.5 7.5 0 1 0 15 0 a7.5 7.5 0 1 0 -15 0zM1575.31 379.85 a7.5 7.5 0 1 0 15 0 a7.5 7.5 0 1 0 -15 0zM1510.36 417.35 a7.5 7.5 0 1 0 15 0 a7.5 7.5 0 1 0 -15 0zM1510.36 492.35 a7.5 7.5 0 1 0 15 0 a7.5 7.5 0 1 0 -15 0zM1445.4 529.85 a7.5 7.5 0 1 0 15 0 a7.5 7.5 0 1 0 -15 0zM1380.45 492.35 a7.5 7.5 0 1 0 15 0 a7.5 7.5 0 1 0 -15 0z" fill="url(#SvgjsLinearGradient12702)"></path><path d="M57.56 419.16L109.53 449.16L109.53 509.16L57.56 539.16L5.6 509.16L5.6 449.16zM109.53 -30.84L161.49 -0.84L161.49 59.16L109.53 89.16L57.56 59.16L57.56 -0.84zM109.53 149.16L161.49 179.16L161.49 239.16L109.53 269.16L57.56 239.16L57.56 179.16zM317.38 -30.84L369.34 -0.84L369.34 59.16L317.38 89.16L265.42 59.16L265.42 -0.84zM369.34 59.16L421.3 89.16L421.3 149.16L369.34 179.16L317.38 149.16L317.38 89.16zM369.34 239.16L421.3 269.16L421.3 329.16L369.34 359.16L317.38 329.16L317.38 269.16zM317.38 329.16L369.34 359.16L369.34 419.16L317.38 449.16L265.42 419.16L265.42 359.16zM317.38 509.16L369.34 539.16L369.34 599.16L317.38 629.16L265.42 599.16L265.42 539.16zM525.23 -30.84L577.19 -0.84L577.19 59.16L525.23 89.16L473.27 59.16L473.27 -0.84zM629.16 -30.84L681.12 -0.84L681.12 59.16L629.16 89.16L577.19 59.16L577.19 -0.84zM681.12 59.16L733.08 89.16L733.08 149.16L681.12 179.16L629.16 149.16L629.16 89.16zM733.08 -30.84L785.04 -0.84L785.04 59.16L733.08 89.16L681.12 59.16L681.12 -0.84zM785.04 239.16L837.01 269.16L837.01 329.16L785.04 359.16L733.08 329.16L733.08 269.16zM837.01 -30.84L888.97 -0.84L888.97 59.16L837.01 89.16L785.05 59.16L785.05 -0.84zM837.01 149.16L888.97 179.16L888.97 239.16L837.01 269.16L785.05 239.16L785.05 179.16zM888.97 239.16L940.93 269.16L940.93 329.16L888.97 359.16L837.01 329.16L837.01 269.16zM837.01 509.16L888.97 539.16L888.97 599.16L837.01 629.16L785.05 599.16L785.05 539.16zM940.93 -30.84L992.9 -0.84L992.9 59.16L940.93 89.16L888.97 59.16L888.97 -0.84zM992.9 59.16L1044.86 89.16L1044.86 149.16L992.9 179.16L940.93 149.16L940.93 89.16zM940.93 149.16L992.9 179.16L992.9 239.16L940.93 269.16L888.97 239.16L888.97 179.16zM992.9 419.16L1044.86 449.16L1044.86 509.16L992.9 539.16L940.93 509.16L940.93 449.16zM1044.86 -30.84L1096.82 -0.84L1096.82 59.16L1044.86 89.16L992.9 59.16L992.9 -0.84zM1148.79 329.16L1200.75 359.16L1200.75 419.16L1148.79 449.16L1096.82 419.16L1096.82 359.16zM1200.75 419.16L1252.71 449.16L1252.71 509.16L1200.75 539.16L1148.79 509.16L1148.79 449.16zM1252.71 -30.84L1304.67 -0.84L1304.67 59.16L1252.71 89.16L1200.75 59.16L1200.75 -0.84zM1304.67 419.16L1356.64 449.16L1356.64 509.16L1304.67 539.16L1252.71 509.16L1252.71 449.16zM1356.64 149.16L1408.6 179.16L1408.6 239.16L1356.64 269.16L1304.67 239.16L1304.67 179.16zM1356.64 509.16L1408.6 539.16L1408.6 599.16L1356.64 629.16L1304.67 599.16L1304.67 539.16z" stroke="url(#SvgjsLinearGradient12703)" stroke-width="2"></path></g><defs><mask id="SvgjsMask12700"><rect width="1440" height="560" fill="#ffffff"></rect></mask><linearGradient x1="50%" y1="0%" x2="50%" y2="100%" gradientUnits="userSpaceOnUse" id="SvgjsLinearGradient12701"><stop stop-color="rgba(14, 42, 71, 1)" offset="0.06"></stop><stop stop-color="rgba(121, 146, 147, 0.83)" offset="0.91"></stop></linearGradient><linearGradient x1="720" y1="0" x2="720" y2="560" gradientUnits="userSpaceOnUse" id="SvgjsLinearGradient12702"><stop stop-color="rgba(0, 0, 0, 1)" offset="0.08"></stop><stop stop-color="rgba(255, 255, 255, 0)" offset="0.86"></stop></linearGradient><linearGradient x1="720" y1="0" x2="720" y2="560" gradientUnits="userSpaceOnUse" id="SvgjsLinearGradient12703"><stop stop-color="rgba(14, 42, 71, 1)" offset="0"></stop><stop stop-color="rgba(19, 0, 238, 0)" offset="0.78"></stop></linearGradient></defs></svg>